<svg width="206" height="124" viewBox="0 0 206 124" fill="none" xmlns="http://www.w3.org/2000/svg">
<path d="M2.88 115.6C2.13333 115.6 1.46667 115.373 0.88 114.92C0.293333 114.44 0 113.853 0 113.16V90.04C0 89.3467 0.226667 88.7733 0.68 88.32C1.16 87.84 1.74667 87.6 2.44 87.6H13.96C15.3467 87.6 16.64 87.9733 17.84 88.72C19.0667 89.44 20.0533 90.4533 20.8 91.76C21.5467 93.04 21.92 94.52 21.92 96.2C21.92 97.2133 21.7067 98.2 21.28 99.16C20.88 100.12 20.32 100.987 19.6 101.76C18.9067 102.533 18.12 103.133 17.24 103.56L17.28 102.64C18.0267 103.04 18.64 103.52 19.12 104.08C19.6267 104.613 20.0133 105.2 20.28 105.84C20.5733 106.453 20.7467 107.12 20.8 107.84C20.9067 108.507 20.9733 109.093 21 109.6C21.0533 110.107 21.1333 110.533 21.24 110.88C21.3733 111.227 21.6133 111.493 21.96 111.68C22.5467 112.027 22.9067 112.533 23.04 113.2C23.2 113.84 23.0533 114.413 22.6 114.92C22.3067 115.267 21.9333 115.493 21.48 115.6C21.0267 115.68 20.5733 115.68 20.12 115.6C19.6667 115.493 19.2933 115.36 19 115.2C18.5467 114.933 18.0933 114.547 17.64 114.04C17.1867 113.507 16.8133 112.8 16.52 111.92C16.2533 111.04 16.12 109.907 16.12 108.52C16.12 108.067 16.04 107.653 15.88 107.28C15.72 106.88 15.4933 106.547 15.2 106.28C14.9067 105.987 14.5333 105.773 14.08 105.64C13.6267 105.48 13.0933 105.4 12.48 105.4H4.4L5 104.48V113.16C5 113.853 4.81333 114.44 4.44 114.92C4.06667 115.373 3.54667 115.6 2.88 115.6ZM4.44 101.28H13.76C14.24 101.28 14.7067 101.067 15.16 100.64C15.6133 100.187 15.9867 99.5867 16.28 98.84C16.5733 98.0667 16.72 97.2267 16.72 96.32C16.72 95.1467 16.4 94.1733 15.76 93.4C15.1467 92.6 14.48 92.2 13.76 92.2H4.52L5 90.92V102.24L4.44 101.28Z" fill="#6682DF"/>
<path d="M44.5372 93.8C45.2305 93.8 45.8039 94.0267 46.2572 94.48C46.7105 94.9333 46.9372 95.52 46.9372 96.24V113.16C46.9372 113.853 46.7105 114.44 46.2572 114.92C45.8039 115.373 45.2305 115.6 44.5372 115.6C43.8439 115.6 43.2705 115.373 42.8172 114.92C42.3639 114.44 42.1372 113.853 42.1372 113.16V111.2L43.0172 111.56C43.0172 111.907 42.8305 112.333 42.4572 112.84C42.0839 113.32 41.5772 113.8 40.9372 114.28C40.2972 114.76 39.5372 115.173 38.6572 115.52C37.8039 115.84 36.8705 116 35.8572 116C34.0172 116 32.3505 115.533 30.8572 114.6C29.3639 113.64 28.1772 112.333 27.2972 110.68C26.4439 109 26.0172 107.08 26.0172 104.92C26.0172 102.733 26.4439 100.813 27.2972 99.16C28.1772 97.48 29.3505 96.1733 30.8172 95.24C32.2839 94.28 33.9105 93.8 35.6972 93.8C36.8439 93.8 37.8972 93.9733 38.8572 94.32C39.8172 94.6667 40.6439 95.1067 41.3372 95.64C42.0572 96.1733 42.6039 96.72 42.9772 97.28C43.3772 97.8133 43.5772 98.2667 43.5772 98.64L42.1372 99.16V96.24C42.1372 95.5467 42.3639 94.9733 42.8172 94.52C43.2705 94.04 43.8439 93.8 44.5372 93.8ZM36.4572 111.6C37.6305 111.6 38.6572 111.307 39.5372 110.72C40.4172 110.133 41.0972 109.333 41.5772 108.32C42.0839 107.307 42.3372 106.173 42.3372 104.92C42.3372 103.64 42.0839 102.493 41.5772 101.48C41.0972 100.467 40.4172 99.6667 39.5372 99.08C38.6572 98.4933 37.6305 98.2 36.4572 98.2C35.3105 98.2 34.2972 98.4933 33.4172 99.08C32.5372 99.6667 31.8439 100.467 31.3372 101.48C30.8572 102.493 30.6172 103.64 30.6172 104.92C30.6172 106.173 30.8572 107.307 31.3372 108.32C31.8439 109.333 32.5372 110.133 33.4172 110.72C34.2972 111.307 35.3105 111.6 36.4572 111.6Z" fill="#6682DF"/>
<path d="M67.5503 94.2C68.2436 94.2 68.817 94.44 69.2703 94.92C69.7236 95.3733 69.9503 95.9467 69.9503 96.64V113.64C69.9503 116.093 69.4836 118.04 68.5503 119.48C67.6436 120.947 66.417 122 64.8703 122.64C63.3236 123.28 61.5903 123.6 59.6703 123.6C58.817 123.6 57.9103 123.533 56.9503 123.4C55.9903 123.267 55.2036 123.067 54.5903 122.8C53.7903 122.453 53.2303 122.013 52.9103 121.48C52.617 120.973 52.5636 120.427 52.7503 119.84C52.9903 119.067 53.377 118.533 53.9103 118.24C54.4436 117.973 55.0036 117.947 55.5903 118.16C56.017 118.293 56.577 118.493 57.2703 118.76C57.9636 119.053 58.7636 119.2 59.6703 119.2C60.897 119.2 61.9103 119.027 62.7103 118.68C63.537 118.36 64.1503 117.8 64.5503 117C64.977 116.227 65.1903 115.16 65.1903 113.8V111.12L66.0303 112.08C65.577 112.96 65.0036 113.693 64.3103 114.28C63.6436 114.84 62.8436 115.267 61.9103 115.56C60.977 115.853 59.9103 116 58.7103 116C57.297 116 56.057 115.68 54.9903 115.04C53.9503 114.373 53.137 113.467 52.5503 112.32C51.9636 111.147 51.6703 109.813 51.6703 108.32V96.64C51.6703 95.9467 51.897 95.3733 52.3503 94.92C52.8036 94.44 53.377 94.2 54.0703 94.2C54.7636 94.2 55.337 94.44 55.7903 94.92C56.2436 95.3733 56.4703 95.9467 56.4703 96.64V106.88C56.4703 108.613 56.8436 109.84 57.5903 110.56C58.3636 111.253 59.4303 111.6 60.7903 111.6C61.7236 111.6 62.5103 111.427 63.1503 111.08C63.7903 110.707 64.2836 110.173 64.6303 109.48C64.977 108.76 65.1503 107.893 65.1503 106.88V96.64C65.1503 95.9467 65.377 95.3733 65.8303 94.92C66.2836 94.44 66.857 94.2 67.5503 94.2Z" fill="#6682DF"/>
<path d="M86.5869 93.8C88.5602 93.8 90.0535 94.2133 91.0669 95.04C92.1069 95.8667 92.8135 96.9733 93.1869 98.36C93.5869 99.72 93.7869 101.24 93.7869 102.92V113.16C93.7869 113.853 93.5602 114.44 93.1069 114.92C92.6535 115.373 92.0802 115.6 91.3869 115.6C90.6935 115.6 90.1202 115.373 89.6669 114.92C89.2135 114.44 88.9869 113.853 88.9869 113.16V102.92C88.9869 102.04 88.8669 101.253 88.6269 100.56C88.4135 99.84 88.0135 99.2667 87.4269 98.84C86.8402 98.4133 86.0002 98.2 84.9069 98.2C83.8402 98.2 82.9335 98.4133 82.1869 98.84C81.4669 99.2667 80.9069 99.84 80.5069 100.56C80.1335 101.253 79.9469 102.04 79.9469 102.92V113.16C79.9469 113.853 79.7202 114.44 79.2669 114.92C78.8135 115.373 78.2402 115.6 77.5469 115.6C76.8535 115.6 76.2802 115.373 75.8269 114.92C75.3735 114.44 75.1469 113.853 75.1469 113.16V96.64C75.1469 95.9467 75.3735 95.3733 75.8269 94.92C76.2802 94.44 76.8535 94.2 77.5469 94.2C78.2402 94.2 78.8135 94.44 79.2669 94.92C79.7202 95.3733 79.9469 95.9467 79.9469 96.64V98.36L79.3469 98.24C79.5869 97.7867 79.9335 97.3067 80.3869 96.8C80.8402 96.2667 81.3735 95.7733 81.9869 95.32C82.6002 94.8667 83.2935 94.5067 84.0669 94.24C84.8402 93.9467 85.6802 93.8 86.5869 93.8Z" fill="#6682DF"/>
<path d="M110.055 93.8C111.922 93.8 113.588 94.28 115.055 95.24C116.548 96.1733 117.722 97.4667 118.575 99.12C119.455 100.773 119.895 102.693 119.895 104.88C119.895 107.067 119.455 109 118.575 110.68C117.722 112.333 116.562 113.64 115.095 114.6C113.655 115.533 112.028 116 110.215 116C109.148 116 108.148 115.827 107.215 115.48C106.282 115.133 105.455 114.693 104.735 114.16C104.042 113.627 103.495 113.093 103.095 112.56C102.722 112 102.535 111.533 102.535 111.16L103.775 110.64V113.56C103.775 114.253 103.548 114.84 103.095 115.32C102.642 115.773 102.068 116 101.375 116C100.682 116 100.108 115.773 99.655 115.32C99.2017 114.867 98.975 114.28 98.975 113.56V88.44C98.975 87.7467 99.2017 87.1733 99.655 86.72C100.108 86.24 100.682 86 101.375 86C102.068 86 102.642 86.24 103.095 86.72C103.548 87.1733 103.775 87.7467 103.775 88.44V98.6L103.095 98.24C103.095 97.8933 103.282 97.48 103.655 97C104.028 96.4933 104.535 96 105.175 95.52C105.815 95.0133 106.548 94.6 107.375 94.28C108.228 93.96 109.122 93.8 110.055 93.8ZM109.455 98.2C108.282 98.2 107.255 98.4933 106.375 99.08C105.495 99.6667 104.802 100.467 104.295 101.48C103.815 102.467 103.575 103.6 103.575 104.88C103.575 106.133 103.815 107.28 104.295 108.32C104.802 109.333 105.495 110.133 106.375 110.72C107.255 111.307 108.282 111.6 109.455 111.6C110.628 111.6 111.642 111.307 112.495 110.72C113.375 110.133 114.055 109.333 114.535 108.32C115.042 107.28 115.295 106.133 115.295 104.88C115.295 103.6 115.042 102.467 114.535 101.48C114.055 100.467 113.375 99.6667 112.495 99.08C111.642 98.4933 110.628 98.2 109.455 98.2Z" fill="#6682DF"/>
<path d="M144.457 104.92C144.457 107.107 143.964 109.04 142.977 110.72C142.017 112.373 140.71 113.667 139.057 114.6C137.43 115.533 135.604 116 133.577 116C131.55 116 129.71 115.533 128.057 114.6C126.43 113.667 125.124 112.373 124.137 110.72C123.177 109.04 122.697 107.107 122.697 104.92C122.697 102.733 123.177 100.813 124.137 99.16C125.124 97.48 126.43 96.1733 128.057 95.24C129.71 94.28 131.55 93.8 133.577 93.8C135.604 93.8 137.43 94.28 139.057 95.24C140.71 96.1733 142.017 97.48 142.977 99.16C143.964 100.813 144.457 102.733 144.457 104.92ZM139.657 104.92C139.657 103.56 139.377 102.387 138.817 101.4C138.284 100.387 137.55 99.6 136.617 99.04C135.71 98.48 134.697 98.2 133.577 98.2C132.457 98.2 131.43 98.48 130.497 99.04C129.59 99.6 128.857 100.387 128.297 101.4C127.764 102.387 127.497 103.56 127.497 104.92C127.497 106.253 127.764 107.427 128.297 108.44C128.857 109.427 129.59 110.2 130.497 110.76C131.43 111.32 132.457 111.6 133.577 111.6C134.697 111.6 135.71 111.32 136.617 110.76C137.55 110.2 138.284 109.427 138.817 108.44C139.377 107.427 139.657 106.253 139.657 104.92Z" fill="#6682DF"/>
<path d="M173.107 94.2C173.721 94.2 174.254 94.44 174.707 94.92C175.161 95.3733 175.387 95.96 175.387 96.68C175.387 96.8667 175.374 97.04 175.347 97.2C175.321 97.3333 175.281 97.4667 175.227 97.6L169.107 114.08C168.921 114.613 168.587 115.027 168.107 115.32C167.627 115.587 167.121 115.68 166.587 115.6C165.681 115.547 165.001 115.04 164.547 114.08L160.587 102.68L161.627 102.72L157.907 114.08C157.454 115.04 156.774 115.547 155.867 115.6C155.361 115.68 154.854 115.587 154.347 115.32C153.867 115.027 153.534 114.613 153.347 114.08L147.227 97.6C147.121 97.3067 147.067 97 147.067 96.68C147.067 96.04 147.281 95.4667 147.707 94.96C148.134 94.4533 148.721 94.2 149.467 94.2C149.974 94.2 150.427 94.32 150.827 94.56C151.227 94.8 151.507 95.1867 151.667 95.72L156.507 108.84L155.507 108.76L159.147 98.88C159.574 97.8933 160.307 97.4 161.347 97.4C161.934 97.4 162.374 97.5333 162.667 97.8C162.987 98.04 163.241 98.4 163.427 98.88L167.067 108.76L165.867 108.92L170.787 95.72C171.107 94.7067 171.881 94.2 173.107 94.2Z" fill="#6682DF"/>
<path d="M181.29 115.56C180.517 115.56 179.917 115.36 179.49 114.96C179.09 114.533 178.89 113.933 178.89 113.16V112.48C178.89 111.707 179.09 111.12 179.49 110.72C179.917 110.293 180.517 110.08 181.29 110.08H181.81C182.584 110.08 183.17 110.293 183.57 110.72C183.997 111.12 184.21 111.707 184.21 112.48V113.16C184.21 113.933 183.997 114.533 183.57 114.96C183.17 115.36 182.584 115.56 181.81 115.56H181.29Z" fill="#6682DF"/>
<path d="M194.531 116C194.531 117.52 194.238 118.827 193.651 119.92C193.065 121.04 192.278 121.907 191.291 122.52C190.305 123.133 189.198 123.44 187.971 123.44C187.305 123.44 186.771 123.213 186.371 122.76C185.945 122.333 185.731 121.813 185.731 121.2V120.76C185.731 120.173 185.931 119.707 186.331 119.36C186.705 119.013 187.185 118.747 187.771 118.56C188.411 118.347 188.865 118.04 189.131 117.64C189.398 117.267 189.558 116.813 189.611 116.28C189.691 115.747 189.731 115.187 189.731 114.6V96.64C189.731 95.9467 189.958 95.3733 190.411 94.92C190.865 94.44 191.438 94.2 192.131 94.2C192.825 94.2 193.398 94.44 193.851 94.92C194.305 95.3733 194.531 95.9467 194.531 96.64V116ZM192.051 91.6C191.145 91.6 190.505 91.4533 190.131 91.16C189.758 90.8667 189.571 90.3467 189.571 89.6V88.84C189.571 88.0667 189.771 87.5467 190.171 87.28C190.598 86.9867 191.238 86.84 192.091 86.84C193.025 86.84 193.678 86.9867 194.051 87.28C194.425 87.5733 194.611 88.0933 194.611 88.84V89.6C194.611 90.3733 194.411 90.9067 194.011 91.2C193.611 91.4667 192.958 91.6 192.051 91.6Z" fill="#6682DF"/>
<path d="M205.347 113.16C205.347 113.853 205.107 114.44 204.627 114.92C204.174 115.373 203.6 115.6 202.907 115.6C202.24 115.6 201.68 115.373 201.227 114.92C200.774 114.44 200.547 113.853 200.547 113.16V88.44C200.547 87.7467 200.774 87.1733 201.227 86.72C201.707 86.24 202.294 86 202.987 86C203.68 86 204.24 86.24 204.667 86.72C205.12 87.1733 205.347 87.7467 205.347 88.44V113.16Z" fill="#6682DF"/>
<path fill-rule="evenodd" clip-rule="evenodd" d="M176.872 49.694C180.918 59.4607 183 69.9286 183 80.5H169C169 71.8984 167.293 63.3811 163.976 55.4342C160.659 47.4874 155.798 40.2667 149.669 34.1845C143.54 28.1023 136.265 23.2776 128.257 19.9859C120.25 16.6942 111.667 15 103 15C94.3328 15 85.7504 16.6942 77.7429 19.9859C69.7354 23.2776 62.4596 28.1023 56.3309 34.1845C50.2023 40.2667 45.3408 47.4874 42.0239 55.4342C38.7071 63.3811 37 71.8984 37 80.5H22C22 69.9286 24.0822 59.4607 28.1277 49.694C32.1732 39.9273 38.1028 31.053 45.5779 23.5779C53.053 16.1028 61.9273 10.1732 71.694 6.1277C81.4607 2.0822 91.9286 0 102.5 0C113.071 0 123.539 2.08219 133.306 6.1277C143.073 10.1732 151.947 16.1028 159.422 23.5779C166.897 31.053 172.827 39.9273 176.872 49.694Z" fill="#6682DF"/>
<path fill-rule="evenodd" clip-rule="evenodd" d="M163.976 55.4342C167.293 63.3811 169 71.8984 169 80.5H154C154 73.8682 152.681 67.3014 150.118 61.1745C147.555 55.0475 143.798 49.4805 139.062 44.7911C134.327 40.1017 128.704 36.3819 122.517 33.8441C116.329 31.3062 109.697 30 103 30C96.3026 30 89.6707 31.3062 83.4831 33.8441C77.2955 36.3819 71.6733 40.1018 66.9376 44.7911C62.2018 49.4805 58.4451 55.0475 55.8821 61.1745C53.3192 67.3014 52 73.8682 52 80.5H37C37 71.8984 38.7071 63.3811 42.0239 55.4342C45.3408 47.4874 50.2023 40.2667 56.3309 34.1845C62.4596 28.1023 69.7354 23.2776 77.7429 19.9859C85.7504 16.6942 94.3328 15 103 15C111.667 15 120.25 16.6942 128.257 19.9859C136.265 23.2776 143.54 28.1023 149.669 34.1845C155.798 40.2667 160.659 47.4874 163.976 55.4342Z" fill="#D5635C"/>
<path fill-rule="evenodd" clip-rule="evenodd" d="M131.284 52.5693C138.786 59.977 143 70.0239 143 80.5H132.996C132.933 76.7306 132.16 73.0052 130.716 69.5195C129.209 65.8797 126.999 62.5726 124.213 59.7868C121.427 57.001 118.12 54.7913 114.481 53.2836C110.841 51.776 106.94 51 103 51C99.0603 51 95.1593 51.776 91.5195 53.2836C87.8797 54.7913 84.5726 57.001 81.7868 59.7868C79.001 62.5726 76.7913 65.8797 75.2836 69.5195C73.8398 73.0052 73.067 76.7306 73.0042 80.5L63 80.5C63 70.0239 67.2143 59.977 74.7157 52.5693C82.2172 45.1616 92.3913 41 103 41C113.609 41 123.783 45.1616 131.284 52.5693Z" fill="#AA79C1"/>
<path fill-rule="evenodd" clip-rule="evenodd" d="M150.118 61.1745C152.681 67.3014 154 73.8682 154 80.5H143C143 70.0239 138.786 59.977 131.284 52.5693C123.783 45.1616 113.609 41 103 41C92.3913 41 82.2172 45.1616 74.7157 52.5693C67.2143 59.977 63 70.0239 63 80.5L103 80.5L52 80.5C52 73.8682 53.3192 67.3014 55.8821 61.1745C58.4451 55.0475 62.2018 49.4805 66.9376 44.7911C71.6733 40.1018 77.2955 36.3819 83.4831 33.8441C89.6707 31.3062 96.3026 30 103 30C109.697 30 116.329 31.3062 122.517 33.8441C128.704 36.3819 134.327 40.1017 139.062 44.7911C143.798 49.4805 147.555 55.0475 150.118 61.1745Z" fill="#60AD51"/>
</svg>
